<?xml version="1.0" encoding="utf-8"?>
<!-- Generator: Adobe Illustrator 16.0.0, SVG Export Plug-In . SVG Version: 6.00 Build 0)  -->
<!DOCTYPE svg PUBLIC "-//W3C//DTD SVG 1.1//EN" "http://www.w3.org/Graphics/SVG/1.1/DTD/svg11.dtd">
<svg version="1.1" id="Capa_1" xmlns="http://www.w3.org/2000/svg" xmlns:xlink="http://www.w3.org/1999/xlink" x="0px" y="0px"
	 width="84px" height="63.333px" viewBox="75.833 60.5 84 63.333" enable-background="new 75.833 60.5 84 63.333"
	 xml:space="preserve">
<g>
	<g id="_x33__6_">
		<g>
			<path fill="#FFFFFF" d="M140.581,106.711H95.086c-1.395,0-2.527,1.397-2.527,3.119s1.132,3.118,2.527,3.118h45.494
				c1.395,0,2.527-1.396,2.527-3.119C143.108,108.108,141.975,106.711,140.581,106.711z M95.086,77.622h45.494
				c1.395,0,2.527-1.396,2.527-3.118s-1.133-3.119-2.527-3.119H95.086c-1.395,0-2.527,1.397-2.527,3.119
				S93.691,77.622,95.086,77.622z M140.581,89.099H95.086c-1.395,0-2.527,1.397-2.527,3.119s1.132,3.119,2.527,3.119h45.494
				c1.395,0,2.527-1.397,2.527-3.119S141.975,89.099,140.581,89.099z"/>
		</g>
	</g>
</g>
</svg>
