<?xml version="1.0" encoding="utf-8"?>
<!-- Generator: Adobe Illustrator 16.0.0, SVG Export Plug-In . SVG Version: 6.00 Build 0)  -->
<!DOCTYPE svg PUBLIC "-//W3C//DTD SVG 1.1//EN" "http://www.w3.org/Graphics/SVG/1.1/DTD/svg11.dtd">
<svg version="1.1" id="Capa_1" xmlns="http://www.w3.org/2000/svg" xmlns:xlink="http://www.w3.org/1999/xlink" x="0px" y="0px"
	 width="512px" height="512px" viewBox="0 0 512 512" enable-background="new 0 0 512 512" xml:space="preserve">
<g>
	<g>
		<g>
			<g>
				<g>
					<g>
						<g>
							<g>
								<linearGradient id="SVGID_1_" gradientUnits="userSpaceOnUse" x1="74.9805" y1="438.0195" x2="437.0193" y2="75.9807">
									<stop  offset="0.2849" style="stop-color:#FABB02"/>
									<stop  offset="1" style="stop-color:#FFE645"/>
								</linearGradient>
								<circle fill="url(#SVGID_1_)" cx="256" cy="257" r="256"/>
							</g>
						</g>
					</g>
				</g>
			</g>
		</g>
	</g>
	<g>
		<g>
			<path fill="#575A65" d="M280.623,188.986v101.202h43.558v0.389c-0.364,1.942-1.839,8.438-5.962,14.629
				c-7.246,10.88-19.563,16.17-37.657,16.17v57.139c73.584,0,97.588-54.766,100-83.727V188.986H280.623z"/>
		</g>
	</g>
	<g>
		<g>
			<path fill="#FFFFFF" d="M244.735,302.674V202.635h-43.559v-0.383c0.367-1.921,1.841-8.343,5.96-14.461
				c7.249-10.755,19.565-15.984,37.662-15.984v-56.479c-73.587,0-97.591,54.133-100,82.76v104.587H244.735z"/>
		</g>
	</g>
</g>
</svg>
