<?xml version="1.0" encoding="utf-8"?>
<!-- Generator: Adobe Illustrator 16.0.0, SVG Export Plug-In . SVG Version: 6.00 Build 0)  -->
<!DOCTYPE svg PUBLIC "-//W3C//DTD SVG 1.1//EN" "http://www.w3.org/Graphics/SVG/1.1/DTD/svg11.dtd">
<svg version="1.1" id="Layer_1" xmlns="http://www.w3.org/2000/svg" xmlns:xlink="http://www.w3.org/1999/xlink" x="0px" y="0px"
	 width="75px" height="70px" viewBox="218.5 226 75 70" enable-background="new 218.5 226 75 70" xml:space="preserve">
<g>
	<path fill="#FFFFFF" d="M234.395,243.715l38.891,38.891c1.191,1.192,3.129,1.192,4.32,0c1.192-1.193,1.192-3.129,0-4.32
		l-38.891-38.891c-1.191-1.192-3.127-1.192-4.32,0C233.202,240.588,233.202,242.523,234.395,243.715z"/>
	<path fill="#FFFFFF" d="M277.605,239.395c-1.191-1.192-3.129-1.192-4.32,0l-38.891,38.891c-1.192,1.191-1.192,3.127,0,4.32
		c1.193,1.192,3.129,1.192,4.32,0l38.891-38.891C278.798,242.523,278.798,240.588,277.605,239.395z"/>
</g>
</svg>
